<svg xmlns="http://www.w3.org/2000/svg" width="13.858" height="13.859" viewBox="0 0 13.858 13.859"><defs><style>.a{fill:#fff;}</style></defs><path class="a" d="M4627.01,214.012h0a1.46,1.46,0,0,0-1.115-.489h-9.67l-.083-.624a1.61,1.61,0,0,0-1.385-1.512h-.719a.522.522,0,1,0,0,1.045h.716a.777.777,0,0,1,.341.605l1.152,8.561a1.731,1.731,0,0,0,.593,1.07,1.791,1.791,0,0,0,.677.371,1.558,1.558,0,0,0-.06,1.068,1.583,1.583,0,0,0,.773.946,1.615,1.615,0,0,0,2.177-.639,1.58,1.58,0,0,0,.1-1.305h1.727a1.586,1.586,0,0,0,.773,1.961,1.607,1.607,0,0,0,.731.177,1.625,1.625,0,0,0,.493-.077,1.588,1.588,0,0,0,1.017-2.061h.863a.522.522,0,1,0,0-1.045h-8.117a.74.74,0,0,1-.7-.607l-.064-.483h7.807a1.787,1.787,0,0,0,1.742-1.512l.577-4.288A1.434,1.434,0,0,0,4627.01,214.012Zm-7.572,2.714h-2.783l-.29-2.158h2.928Zm.216,3.2h-2.567l-.291-2.158h2.714Zm2.8-2.158-.146,2.158h-1.6l-.144-2.158Zm-2.107-3.2h2.321l-.145,2.158h-2.03Zm5.589,3.2-.209,1.551a.74.74,0,0,1-.7.607h-1.659l.145-2.158Zm.369-2.74-.229,1.7h-2.5l.145-2.158h2.169a.416.416,0,0,1,.319.133A.4.4,0,0,1,4626.307,215.03Zm-7.862,8.624a.55.55,0,1,1,.55.545A.548.548,0,0,1,4618.445,223.654Zm4.742,0a.549.549,0,0,1,.55-.545h0a.545.545,0,1,1-.55.545Z" transform="translate(-4613.51 -211.387)"/></svg>