<svg xmlns="http://www.w3.org/2000/svg" width="50" height="50" viewBox="0 0 50 50">
  <g id="_9023757_hexagon_fill_icon" data-name="9023757_hexagon_fill_icon" transform="translate(0 0.166)">
    <rect id="Rectangle_4785" data-name="Rectangle 4785" width="50" height="50" transform="translate(0 -0.166)" fill="none"/>
    <path id="Path_12564" data-name="Path 12564" d="M65.464,26.863l-16.4-9.254a3.1,3.1,0,0,0-3.085,0l-16.4,9.254A3.163,3.163,0,0,0,28,29.6V48.064A3.163,3.163,0,0,0,29.581,50.8l16.4,9.254a3.1,3.1,0,0,0,3.085,0l16.4-9.254a3.163,3.163,0,0,0,1.581-2.733V29.6a3.163,3.163,0,0,0-1.581-2.733Z" transform="translate(-22.534 -13.985)" fill="#ffb834"/>
  </g>
</svg>
