<svg xmlns="http://www.w3.org/2000/svg" width="9.494" height="11.689" viewBox="0 0 9.494 11.689"><defs><style>.a{fill:#858585;}</style></defs><path class="a" d="M222.672,154.7a.274.274,0,0,0-.274.274v5.174a.274.274,0,0,0,.548,0v-5.174A.274.274,0,0,0,222.672,154.7Zm0,0" transform="translate(-216.31 -150.468)"/><path class="a" d="M104.672,154.7a.274.274,0,0,0-.274.274v5.174a.274.274,0,0,0,.548,0v-5.174A.274.274,0,0,0,104.672,154.7Zm0,0" transform="translate(-101.54 -150.468)"/><path class="a" d="M.774,3.479v6.745a1.51,1.51,0,0,0,.4,1.042,1.348,1.348,0,0,0,.978.423h5.18a1.348,1.348,0,0,0,.978-.423,1.51,1.51,0,0,0,.4-1.042V3.479a1.046,1.046,0,0,0-.268-2.056h-1.4V1.08A1.075,1.075,0,0,0,5.959,0H3.528A1.075,1.075,0,0,0,2.444,1.08v.342h-1.4A1.046,1.046,0,0,0,.774,3.479ZM7.333,11.14H2.154a.867.867,0,0,1-.832-.917V3.5H8.166v6.721A.867.867,0,0,1,7.333,11.14ZM2.992,1.08A.527.527,0,0,1,3.528.546H5.959A.527.527,0,0,1,6.5,1.08v.342h-3.5Zm-1.949.89h7.4a.493.493,0,1,1,0,.986h-7.4a.493.493,0,1,1,0-.986Zm0,0" transform="translate(0.003 0.001)"/><path class="a" d="M163.672,154.7a.274.274,0,0,0-.274.274v5.174a.274.274,0,0,0,.548,0v-5.174A.274.274,0,0,0,163.672,154.7Zm0,0" transform="translate(-158.925 -150.468)"/></svg>