<svg xmlns="http://www.w3.org/2000/svg" width="15" height="15" viewBox="0 0 15 15"><defs><style>.a{fill:#858585;}</style></defs><path class="a" d="M14.6,2.436,12.555.389a1.394,1.394,0,0,0-1.929,0L1.462,9.644a.343.343,0,0,0-.086.147L.013,14.567a.341.341,0,0,0,.421.422l4.773-1.365a.342.342,0,0,0,.146-.086L14.6,4.366a1.365,1.365,0,0,0,0-1.93ZM9.14,2.87l1.255,1.255L3.843,10.677l-.47-.941a.341.341,0,0,0-.3-.188H2.522ZM.837,14.165l.444-1.554,1.11,1.11ZM4.772,13.04l-1.631.466L1.5,11.86l.466-1.631h.9L3.445,11.4a.341.341,0,0,0,.152.152l1.175.588v.9Zm.682-.561v-.546a.341.341,0,0,0-.188-.3l-.941-.47,6.552-6.552,1.255,1.255Zm8.665-8.588-1.5,1.49-3-3,1.489-1.5a.7.7,0,0,1,.964,0l2.045,2.045a.682.682,0,0,1,0,.963Z" transform="translate(0 -0.002)"/></svg>