<svg id="Group_13955" data-name="Group 13955" xmlns="http://www.w3.org/2000/svg" xmlns:xlink="http://www.w3.org/1999/xlink" width="198.342" height="234.221" viewBox="0 0 198.342 234.221">
  <defs>
    <clipPath id="clip-path">
      <rect id="Rectangle_4377" data-name="Rectangle 4377" width="198.342" height="234.221" fill="none"/>
    </clipPath>
    <clipPath id="clip-path-3">
      <path id="Path_2551" data-name="Path 2551" d="M24.9,229.981c-.105.685-5.97,24.9,2.139,51.829,1.21,4.017.992,8.329-1.4,11.773C21.2,299.946,14.319,309.8,12.027,318.257c-3.5,12.889-3.4,16.522-3.4,16.522l6.891,4.55s42.759-43.283,29.566-92.854c-5.65-21.231-10.164-27.3-13.477-27.3-4.423,0-6.706,10.81-6.706,10.81" transform="translate(-8.625 -219.171)" fill="none"/>
    </clipPath>
    <clipPath id="clip-path-4">
      <rect id="Rectangle_4373" data-name="Rectangle 4373" width="16.709" height="31.034" fill="none"/>
    </clipPath>
    <clipPath id="clip-path-6">
      <path id="Path_2556" data-name="Path 2556" d="M17,21.962C9.985,25.742,15.034,48.189,21.5,50.38c0,0,5.033,12.9,1.89,16.214,0,0,9.372,6.083,13.7,3.993S41.271,67.8,41.271,67.8s-4.366-3.342-5.516-5.12-5.011-8.726-3.467-12.193c0,0,5.933,3.527,8.743-1.113,3.661-6.045-5.624-23.335-8.407-24.712-2.055-1.017-5.767-4.063-10.395-4.063A10.863,10.863,0,0,0,17,21.962" transform="translate(-13.611 -20.593)" fill="none"/>
    </clipPath>
    <clipPath id="clip-path-7">
      <rect id="Rectangle_4375" data-name="Rectangle 4375" width="7.247" height="6.013" fill="none"/>
    </clipPath>
  </defs>
  <g id="Group_13954" data-name="Group 13954" clip-path="url(#clip-path)">
    <g id="Group_13939" data-name="Group 13939">
      <g id="Group_13938" data-name="Group 13938" clip-path="url(#clip-path)">
        <path id="Path_2544" data-name="Path 2544" d="M388.8,514.283a6.077,6.077,0,1,0,6.076-6.076,6.076,6.076,0,0,0-6.076,6.076" transform="translate(-218.909 -286.139)" fill="#f8614b"/>
        <path id="Path_2545" data-name="Path 2545" d="M226.561,514.283a6.076,6.076,0,1,0,6.076-6.076,6.076,6.076,0,0,0-6.076,6.076" transform="translate(-127.562 -286.139)" fill="#f8614b"/>
        <path id="Path_2546" data-name="Path 2546" d="M106.38,183.533l-2.738,3.6s-20.474-27.9-32.4-47.334c3.17-3.636,3.244-8.692,5.986-9.389,11.843,16.769,29.148,53.125,29.148,53.125" transform="translate(-40.114 -73.424)" fill="#ebaf7f"/>
        <path id="Path_2547" data-name="Path 2547" d="M12.587,486.867l-6.345,7.024-3.466-1.935,3.913-6.409s6.568-.806,5.9,1.321" transform="translate(-1.563 -273.296)" fill="#eec0c5"/>
        <path id="Path_2548" data-name="Path 2548" d="M3.816,499.621s15.59.668,15.329,10.421L2.829,500.021" transform="translate(-1.593 -281.305)" fill="#f8614b"/>
        <path id="Path_2549" data-name="Path 2549" d="M24.9,229.98c-.105.685-5.97,24.9,2.139,51.83,1.21,4.017.992,8.329-1.4,11.773C21.2,299.946,14.318,309.8,12.026,318.257c-3.5,12.889-3.4,16.522-3.4,16.522l6.892,4.55s42.759-43.283,29.566-92.855S24.9,229.98,24.9,229.98" transform="translate(-4.856 -123.401)" fill="#f0dbbe"/>
      </g>
    </g>
    <g id="Group_13944" data-name="Group 13944" transform="translate(3.769 95.77)">
      <g id="Group_13943" data-name="Group 13943" clip-path="url(#clip-path-3)">
        <g id="Group_13942" data-name="Group 13942" transform="translate(25.823 27.366)" opacity="0.35" style="mix-blend-mode: multiply;isolation: isolate">
          <g id="Group_13941" data-name="Group 13941">
            <g id="Group_13940" data-name="Group 13940" clip-path="url(#clip-path-4)">
              <path id="Path_2550" data-name="Path 2550" d="M83.422,312.832s-21.174-19.413-14.344-28.605S88,293.541,83.422,312.832" transform="translate(-67.721 -281.798)" fill="#648fb1"/>
            </g>
          </g>
        </g>
      </g>
    </g>
    <g id="Group_13946" data-name="Group 13946">
      <g id="Group_13945" data-name="Group 13945" clip-path="url(#clip-path)">
        <path id="Path_2552" data-name="Path 2552" d="M223.442,449.488c-1.038.755-1.967,3.92-3.931,3.888-1.239-1.86-8.658-11.362-10.666-13.978l5.822-3.337c2.038,3.445,5.032,11.661,7.039,13.672.455.456,2.258-.623,1.737-.245" transform="translate(-117.587 -245.518)" fill="#eec0c5"/>
        <path id="Path_2553" data-name="Path 2553" d="M45,218.038C53.33,214.665,58.823,202.6,58.823,202.6s3.447,5.93,10.916,18.729c3.53,6.048,24.037,35.4,29.415,43.148,3.987,5.747,20.342,27.551,26.411,42.53l-10,5.889c-3.674-4.786-8.66-9.265-11.353-13.3-7-10.473-20.876-25.41-24.773-29.427S54,252.662,47.642,242.668c-7-11-4.634-23.821-2.638-24.629" transform="translate(-24.183 -114.068)" fill="#f0dbbe"/>
        <path id="Path_2554" data-name="Path 2554" d="M41.27,67.795s-4.367-3.342-5.516-5.12-5.011-8.727-3.467-12.193c0,0,5.933,3.526,8.743-1.113,3.661-6.046-5.624-23.335-8.407-24.712s-8.6-6.473-15.62-2.694S15.034,48.188,21.5,50.38c0,0,5.033,12.9,1.889,16.214,0,0,9.372,6.083,13.7,3.993s4.186-2.792,4.186-2.792" transform="translate(-7.663 -11.594)" fill="#ebaf7f"/>
      </g>
    </g>
    <g id="Group_13951" data-name="Group 13951" transform="translate(5.947 8.998)">
      <g id="Group_13950" data-name="Group 13950" clip-path="url(#clip-path-6)">
        <g id="Group_13949" data-name="Group 13949" transform="translate(13.272 26.408)" opacity="0.29" style="mix-blend-mode: multiply;isolation: isolate">
          <g id="Group_13948" data-name="Group 13948">
            <g id="Group_13947" data-name="Group 13947" clip-path="url(#clip-path-7)">
              <path id="Path_2555" data-name="Path 2555" d="M50.538,86.286l-1.149-1.778s-4.255-1.7-5.4-3.481c0,0,2.712,5.17,5.656,5.822s.9-.563.9-.563" transform="translate(-43.984 -81.028)" fill="#826e4f"/>
            </g>
          </g>
        </g>
      </g>
    </g>
    <g id="Group_13953" data-name="Group 13953">
      <g id="Group_13952" data-name="Group 13952" clip-path="url(#clip-path)">
        <path id="Path_2557" data-name="Path 2557" d="M19.541,117.767c6.193-7.009,15.691-1.1,17.9-.611s-.726-4.068-.726-4.068l4.475,2.18c13.689,12.211,9.625,12.1,12.927,20.857,4.742,12.579,3.657,32.234,1.184,34.924l-11.671-.811c-8.28-.2-14-.533-14.731-5.681-.468-3.3.683-11.557-4.81-19.434-3.948-5.663-10.74-20.346-4.547-27.356" transform="translate(-9.596 -63.673)" fill="#7fccb6"/>
        <path id="Path_2558" data-name="Path 2558" d="M28.932,18.277s5.334-2.113,4.166-5.346-6.358-1.147-6.358-1.147S34.155,7.078,30.717,4.3,18.594,6,18.594,6,20.62,2.045,17.879.255,4.5,6.476,5.565,12.713c0,0-9.929,1.663-3.262,13.228s11.677,12.9,11.677,12.9a10.648,10.648,0,0,0,.51-7.68,1.9,1.9,0,0,1-2.694.378c-1.545-1.142-3.211-4.034-2.561-5.212s5.435,1.413,5.435,1.413,2.949-4.218,1.207-6.691.528-2.927.528-2.927,7.978,1.727,10.678-2.247a8.415,8.415,0,0,1,1.849,2.4" transform="translate(0 0)" fill="#d18037"/>
        <path id="Path_2559" data-name="Path 2559" d="M232.622,462.178s7.555-13.653,16.167-9.067L232.539,463.24" transform="translate(-130.928 -254.587)" fill="#f8614b"/>
        <path id="Path_2560" data-name="Path 2560" d="M27.635,123.534c1.058-.943,1.567-2.929,2.515-2.854,4.159-.3,10.444,4.643,17.2,11.7a19.356,19.356,0,0,0-8.613,7.629c-7.546-8.37-12.663-15.088-11.1-16.48" transform="translate(-15.401 -67.94)" fill="#7fccb6"/>
        <path id="Path_2561" data-name="Path 2561" d="M95.929,191.7l-2.036,4.037S68.673,172.048,53.4,155.114a19.354,19.354,0,0,1,8.613-7.629c15.689,16.4,33.912,44.219,33.912,44.219" transform="translate(-30.068 -83.039)" fill="#ebaf7f"/>
        <path id="Path_2562" data-name="Path 2562" d="M151.167,299.127l132.288,10.714-10.238,58.687H167.239Zm130.7,11.736L152.889,300.417,168.4,367.383H272Z" transform="translate(-85.112 -168.419)" fill="#d59e72"/>
        <path id="Path_2563" data-name="Path 2563" d="M174.154,476.766h104.3v-1.145h-104.3c-3,0-9.2-2.5-9.2-10.235,0-7.513,8.935-8.84,9.316-8.893l-.231-1.129c-.1.014-10.482,1.529-10.482,10.022a10.934,10.934,0,0,0,10.6,11.38" transform="translate(-92.089 -256.386)" fill="#d59e72"/>
        <path id="Path_2564" data-name="Path 2564" d="M400.691,380.523l6.292-58.97-1.393-.1-6.292,58.97Z" transform="translate(-224.819 -180.99)" fill="#d59e72"/>
        <path id="Path_2565" data-name="Path 2565" d="M362.292,377.583l1.4-61.26-1.4-.021-1.4,61.26Z" transform="translate(-203.196 -178.089)" fill="#d59e72"/>
        <path id="Path_2566" data-name="Path 2566" d="M310.893,376.1l1.4-.042-2.8-62.4-1.4.042Z" transform="translate(-173.47 -176.601)" fill="#d59e72"/>
        <path id="Path_2567" data-name="Path 2567" d="M259.6,373.141l1.389-.131-9.088-64.7-1.389.131Z" transform="translate(-141.046 -173.593)" fill="#d59e72"/>
        <path id="Path_2568" data-name="Path 2568" d="M206.2,370.92l1.38-.185L194.3,304.323l-1.38.185Z" transform="translate(-108.622 -171.345)" fill="#d59e72"/>
        <path id="Path_2569" data-name="Path 2569" d="M285.918,341.21l.109-1.142-125.141-8.015-.109,1.142Z" transform="translate(-90.523 -186.958)" fill="#d59e72"/>
        <path id="Path_2570" data-name="Path 2570" d="M288.586,383.06l.058-1.144-118.151-4.008-.057,1.144Z" transform="translate(-95.961 -212.776)" fill="#d59e72"/>
        <path id="Path_2571" data-name="Path 2571" d="M292.151,425.482l.008-1.145-110.46-.573-.008,1.145Z" transform="translate(-102.299 -238.595)" fill="#d59e72"/>
        <path id="Path_2572" data-name="Path 2572" d="M147.177,284.663,144.2,268.926h-1.7l2.865,15.736,1.813,1.06" transform="translate(-80.232 -151.415)" fill="#d59e72"/>
        <path id="Path_2573" data-name="Path 2573" d="M155.447,278.514l-.116-18.348-2.127.851,1.121,17.5Z" transform="translate(-86.259 -146.483)" fill="#d59e72"/>
        <path id="Path_2574" data-name="Path 2574" d="M144,252.192l-1.7-4.679-9.782,6.805s-3.828,4.678,0,4.678,11.483-6.8,11.483-6.8" transform="translate(-73.655 -139.359)" fill="#d59e72"/>
        <path id="Path_2575" data-name="Path 2575" d="M266.959,262.763a38.234,38.234,0,1,0-38.234-38.234,38.231,38.231,0,0,0,38.234,38.234m-12.1-50.332a3.57,3.57,0,0,1,5.063,0l7.019,7.019,7.02-7.019a3.58,3.58,0,1,1,5.063,5.063l-7.02,7.019,7.02,7.02a3.58,3.58,0,1,1-5.063,5.063l-7.02-7.02-7.019,7.02a3.58,3.58,0,0,1-5.063-5.063l7.019-7.02-7.019-7.019a3.57,3.57,0,0,1,0-5.063" transform="translate(-128.78 -104.89)" fill="#f8614b"/>
        <path id="Path_2576" data-name="Path 2576" d="M148.068,245.348s7.39-2.058,7.276,2.28-4.405,7.5-5.227,4.6.655-4.443-1.165-3.736-.884-3.148-.884-3.148" transform="translate(-83.232 -137.865)" fill="#ebaf7f"/>
        <path id="Path_2577" data-name="Path 2577" d="M142.8,249.991s7.39-2.058,7.276,2.28-4.405,7.5-5.227,4.6.655-4.443-1.165-3.736-.884-3.148-.884-3.148" transform="translate(-80.268 -140.48)" fill="#ebaf7f"/>
      </g>
    </g>
  </g>
</svg>
