<svg xmlns="http://www.w3.org/2000/svg" xmlns:xlink="http://www.w3.org/1999/xlink" width="444.507" height="234.381" viewBox="0 0 444.507 234.381">
  <defs>
    <clipPath id="clip-path">
      <rect id="Rectangle_4371" data-name="Rectangle 4371" width="444.507" height="234.381" fill="none"/>
    </clipPath>
  </defs>
  <g id="Group_13937" data-name="Group 13937" transform="translate(-498 -498)">
    <g id="Group_13936" data-name="Group 13936" transform="translate(312 477.164)">
      <g id="Group_13935" data-name="Group 13935" transform="translate(186 20.836)" clip-path="url(#clip-path)">
        <path id="Path_2497" data-name="Path 2497" d="M12.215,316.243c.021.015,416.971-.049,416.971-.049,11.677-23.925,18.374-50.069,13.948-76.537-5.563-33.333-31.6-61.114-58.809-73.445-15.886-7.23-30.612-8.172-43.639-6.974-17.448,1.606-31.817,7.048-41.875,6.392-6.168-.4-11.2-4.151-16.6-9.677-7.137-7.3-14.845-17.588-26.715-27.458a112.966,112.966,0,0,0-33.606-19.311l-.02-.007c-32.761-12.12-85.672-14.614-119.011-.737-8.531,3.548-40.671,19.423-50.1,46.278a46.452,46.452,0,0,0-.69,28.665c10.628,37.583-5.554,42.26-25.8,60.171-27.025,23.9-35.726,56.156-14.051,72.689" transform="translate(0 -82.37)" fill="#dff4e4"/>
        <path id="Path_2498" data-name="Path 2498" d="M1133.611,71.945l-4.6,48.906-5.3,56.39a21.389,21.389,0,0,1-42.591-4.005l3.057-32.506,6.849-72.792c1.1-11.711,12.092-25.766,23.8-24.664,0,0,19.389,4.081,18.787,28.671" transform="translate(-899.224 -35.946)" fill="#f7b284"/>
        <path id="Path_2499" data-name="Path 2499" d="M1169.408,215.954s7.436-10.327,31.624-12.805c0,0-9.316,14.143-31.624,12.805" transform="translate(-972.745 -168.985)" fill="#e8a070"/>
        <path id="Path_2500" data-name="Path 2500" d="M1142.7,319.068s8.748-12.15,37.2-15.065c0,0-10.959,16.639-37.2,15.065" transform="translate(-950.528 -252.878)" fill="#e8a070"/>
        <path id="Path_2501" data-name="Path 2501" d="M1132.406,428.489s8.748-12.15,37.2-15.065c0,0-10.959,16.639-37.2,15.065" transform="translate(-941.966 -343.897)" fill="#e8a070"/>
        <path id="Path_2502" data-name="Path 2502" d="M1199.6,129.115s5.214-7.242,22.174-8.979c0,0-6.532,9.917-22.174,8.979" transform="translate(-997.859 -99.933)" fill="#e8a070"/>
        <path id="Path_2503" data-name="Path 2503" d="M1129.011,504.869l-5.3,56.39a21.39,21.39,0,0,1-42.591-4.005l3.057-32.506c3.07-2.733,6.616-4.418,10.661-4.259,14.441.564,28.423-10.515,34.178-15.62" transform="translate(-899.223 -419.964)" fill="#efa97a"/>
        <path id="Path_2504" data-name="Path 2504" d="M1423.239,180.505c-.011.22-.019.335-.019.335s-.036-.112-.106-.325c-.574-1.768-3.375-10.494-5.925-20.21-3.526-13.443-6.57-28.779-2.565-30.2,7.587-2.688,8.985,18.79,9.006,34.639.013,7.808-.31,14.247-.392,15.758" transform="translate(-1175.143 -108.037)" fill="#a8d29f"/>
        <path id="Path_2505" data-name="Path 2505" d="M1481.617,55.015c-2.741,6.082-5.12,11.2-6.485,14.263-.594,1.336-1,2.281-1.151,2.747.133-.757.49-2.788,1-5.679v0c.766-4.331,1.88-10.587,3.1-17.381,2.964-16.511,6.572-36.184,7.414-39,1.486-4.961,8.334-15.523,12.943-6.334,2.995,5.972-8.561,33.053-16.824,51.384" transform="translate(-1226.097 -0.001)" fill="#a8d29f"/>
        <path id="Path_2506" data-name="Path 2506" d="M1484.66,229.87c-2.834,2.991-5.215,5.416-6.545,6.756-.727.734-1.14,1.143-1.14,1.143s.725-1.547,1.961-4.017c1.168-2.334,2.79-5.491,4.687-8.946,6.214-11.323,15.363-25.836,21.036-25,6.474.956-9.728,19.22-20,30.061" transform="translate(-1228.588 -166.178)" fill="#a8d29f"/>
        <path id="Path_2507" data-name="Path 2507" d="M1445.318,331c-.04,0-.081.006-.125.01-.573-1.768-3.375-10.494-5.925-20.21,1.189,1.781,3.339,4.17,6.441,4.443.013,7.808-.31,14.247-.392,15.758" transform="translate(-1197.222 -258.534)" fill="#82b378"/>
        <path id="Path_2508" data-name="Path 2508" d="M1486.57,297.191c-2.741,6.082-5.12,11.2-6.485,14.263a24.752,24.752,0,0,1-.15-2.932v0c.767-4.331,1.88-10.587,3.1-17.38.477,2.372,1.471,5,3.534,6.053" transform="translate(-1231.05 -242.177)" fill="#82b378"/>
        <path id="Path_2509" data-name="Path 2509" d="M1490.3,353.684c-2.834,2.991-5.215,5.415-6.545,6.756a18.08,18.08,0,0,1,.822-2.873c1.168-2.334,2.79-5.491,4.687-8.946a12.381,12.381,0,0,0,1.037,5.063" transform="translate(-1234.224 -289.993)" fill="#82b378"/>
        <path id="Path_2510" data-name="Path 2510" d="M1473.625,428.3c-.038.212-.057.324-.057.324-.028-.015-.01-.125.057-.324" transform="translate(-1225.744 -356.27)" fill="#a8d29f"/>
        <path id="Path_2511" data-name="Path 2511" d="M1377.669,420.414c-4.753,13.466-10.672,28.149-10.672,28.149l-13.371-4.007s1.566-9.974,3.864-21.071c2.68-12.94,6.354-27.412,9.708-29.392a10.824,10.824,0,0,1,4.745-1.486,11.578,11.578,0,0,1,2.393.07c.187.024.371.053.556.085a12.545,12.545,0,0,1,1.365.324q.261.074.517.165a13.035,13.035,0,0,1,1.709.719,10.273,10.273,0,0,1,4.91,4.863c.795,1.927-2.131,11.408-5.724,21.582" transform="translate(-1125.983 -326.554)" fill="#ea822d"/>
        <path id="Path_2512" data-name="Path 2512" d="M1486.926,360.42a79.91,79.91,0,0,0,1.83,34.526,6.9,6.9,0,0,0,6.324,5.117c2.019-.3,5.479-4.542,7.088-9.555a17.8,17.8,0,0,0,.838-4.244c.734-11.167,3.1-24.824,7.391-32.247,4.391-7.59,10.455-16.78,19.593-23.811a.005.005,0,0,1,0,0c.88-.687,21.086-20.34,21.086-20.34,1.905-2.694-1.134-4.972-1.134-4.972a62.334,62.334,0,0,1-7.87,6.884c-6,4.7-18.1,1.93-18.107,1.93a11.055,11.055,0,0,0-10.1,2.07,81.726,81.726,0,0,0-15.471,16.853,71.141,71.141,0,0,0-11.469,27.79" transform="translate(-1235.942 -253.618)" fill="#ffb93e"/>
        <path id="Path_2513" data-name="Path 2513" d="M1577.679,463.442c.734-11.166,3.1-24.825,7.391-32.247,4.391-7.59,10.455-16.78,19.593-23.81a.006.006,0,0,1,0,0c.155-.151,6.171-6.072-1.926-9.5-7.924-3.351-33.014,33.65-25.9,69.8a17.812,17.812,0,0,0,.839-4.245" transform="translate(-1310.614 -330.796)" fill="#ffa412"/>
        <path id="Path_2514" data-name="Path 2514" d="M992.306,480.084a24.287,24.287,0,0,1-3.458,4.251c-5.164,5.086-13.269,8.859-23.7,8.76a30.866,30.866,0,0,1-6.5-9.489l0,0c-1.473-3.685-2.548-9.112,0-13.14a10.131,10.131,0,0,1,5.891-4.471c3.634-1.105,7.35-.536,8.974-2.154a16.126,16.126,0,0,1,6.383-3.767c.409-.13.823-.246,1.244-.341h0c.174-.042.347-.079.522-.114a.026.026,0,0,1,.012,0c3.858-.753,7.978-.015,10.844,3.424a12.293,12.293,0,0,1,1.781,2.919c1.836,4.126,1.047,9.36-1.987,14.125" transform="translate(-796.149 -382.098)" fill="#a8d29f"/>
        <path id="Path_2515" data-name="Path 2515" d="M973.146,521.137s-3.443,2.7-2.388,5.693,3.776,1.609,4.627-.462.024-6.235-2.239-5.231" transform="translate(-807.336 -433.368)" fill="#d1f2c9"/>
        <path id="Path_2516" data-name="Path 2516" d="M1000.091,481.3a12.342,12.342,0,0,1,1.782,2.92c1.836,4.126,4.356,15.072,1.323,19.837l-4.07,3.723c-5.163,5.087-15.968,3.674-26.4,3.575a30.878,30.878,0,0,1-6.5-9.488h0s12.907,5.106,25.063-5.554a26.672,26.672,0,0,0,8.806-15.011" transform="translate(-803.729 -400.359)" fill="#95c38b"/>
        <path id="Path_2517" data-name="Path 2517" d="M980.792,429.218c-2.13-1.269-4.286.514-6.788,1.492s-7.319.96-7.319.96a34.942,34.942,0,0,1,5.227-5.684c3.247-2.833,8.88,3.232,8.88,3.232" transform="translate(-804.114 -353.72)" fill="#a8d29f"/>
        <path id="Path_2518" data-name="Path 2518" d="M980.792,429.218c-2-1.643-5.705-2.586-7.512-1.846s-6.6,4.3-6.6,4.3a34.942,34.942,0,0,1,5.227-5.684c3.247-2.833,8.88,3.232,8.88,3.232" transform="translate(-804.114 -353.72)" fill="#82b378"/>
        <path id="Path_2519" data-name="Path 2519" d="M1010.221,467.424a16.124,16.124,0,0,1,6.383-3.767c-4.255,1.6-6.6,6.988-8.217,6.364-1.732-.672-6.941-.452-7.14-.443,3.634-1.106,7.35-.536,8.974-2.154" transform="translate(-832.864 -385.683)" fill="#95c38b"/>
        <path id="Path_2520" data-name="Path 2520" d="M1100.49,460.956c-.134.038-.307.076-.522.114.174-.042.346-.079.522-.114" transform="translate(-914.983 -383.436)" fill="#95c38b"/>
        <path id="Path_2521" data-name="Path 2521" d="M1041.755,422.882h0c-1.365-3.015-.627-6.755.232-9.362a59.393,59.393,0,0,1,2.639-6.206.347.347,0,0,1,.643.044l.26.786a2.836,2.836,0,0,1-.264,2.358c-1.319,2.181-3.968,7.277-2.775,11.473.134.472-.492,1.448-.734.908" transform="translate(-865.932 -338.652)" fill="#82b378"/>
        <path id="Path_2522" data-name="Path 2522" d="M1377.669,558.118c-4.753,13.466-10.672,28.149-10.672,28.149l-13.371-4.007s1.566-9.974,3.864-21.071l0-.011s2.714,6.1,9.15,5.97c3.667-.072,7.988-4.893,11.026-9.029" transform="translate(-1125.983 -464.258)" fill="#db6f26"/>
        <path id="Path_2523" data-name="Path 2523" d="M1420.715,607.456l14.994,106.808a22.017,22.017,0,0,1-21.8,25.078h-22.591a19.161,19.161,0,0,1-19.047-21.245l12.689-99.355Z" transform="translate(-1141.393 -505.299)" fill="#fcecdb"/>
        <path id="Path_2524" data-name="Path 2524" d="M1129.027,607.456s36.343,12.391,78.743,0l-12.493,132.223h-79.122Z" transform="translate(-928.449 -505.299)" fill="#fcecdb"/>
        <path id="Path_2525" data-name="Path 2525" d="M952.487,607.456l14.994,106.808a22.017,22.017,0,0,1-21.8,25.078h-22.59A19.161,19.161,0,0,1,904.04,718.1l10.74-110.641s5.024,3.635,17.9,3.635c12.748,0,19.812-3.635,19.812-3.635" transform="translate(-751.909 -505.299)" fill="#f9ddbf"/>
        <path id="Path_2526" data-name="Path 2526" d="M1322.158,709.323a35.69,35.69,0,0,1-5.682-.477c-15.989-2.58-20.917-30.785-21.119-31.984l3.173-.535h0a73.365,73.365,0,0,0,4.177,14.121c2.64,6.318,7.261,14.088,14.282,15.22,7.985,1.289,14.464-.31,18.735-4.623,5.06-5.11,6.857-13.7,5.06-24.179l3.172-.544c1.977,11.535-.134,21.12-5.945,26.988-3.936,3.975-9.35,6.012-15.853,6.012" transform="translate(-1077.513 -562.584)" fill="#f9ddbf"/>
        <path id="Path_2527" data-name="Path 2527" d="M1289.515,664.337a2.815,2.815,0,1,1,2.815,2.815,2.815,2.815,0,0,1-2.815-2.815" transform="translate(-1072.654 -550.272)" fill="#f9ddbf"/>
        <path id="Path_2528" data-name="Path 2528" d="M1559.083,664.337a2.815,2.815,0,1,1,2.815,2.815,2.815,2.815,0,0,1-2.815-2.815" transform="translate(-1296.888 -550.272)" fill="#f9ddbf"/>
        <path id="Path_2529" data-name="Path 2529" d="M829.865,660.893l1.255-1.513a4.226,4.226,0,0,1,4.98-2.9s1.624.4.966,1.418-.552.531-1.447,1.982-2.38,2.361-3.608,2.14l-1.372.321Z" transform="translate(-690.304 -546.004)" fill="#ffb27d"/>
        <path id="Path_2530" data-name="Path 2530" d="M660.062,675.344c-.837-1.14-1.069-1.187-1.069-1.187s-12.364,5.7-13.486,6.316c-2.955,1.61-19.824.8-19.824.8l-2.336,9.535s21.011-1.516,24.967-3.656c4.707-2.548,12.474-9.952,12.474-9.952a3.941,3.941,0,0,0-.726-1.854" transform="translate(-518.517 -560.782)" fill="#42ceb7"/>
        <path id="Path_2531" data-name="Path 2531" d="M582.392,664.668s3.707,4.4,8.428,2.558a14.309,14.309,0,0,0,1.03-4.267c0-.223,0-.439.008-.644.025-2.039.094-3.183.094-3.183h0c-.215-.09-7.217-2.965-7.211-2.726.12,5.515-2.344,8.263-2.344,8.263" transform="translate(-484.45 -546.004)" fill="#ffb27d"/>
        <path id="Path_2532" data-name="Path 2532" d="M600.49,664.039a10.952,10.952,0,0,0,6.419,4.595c.025-2.039.094-3.183.094-3.183h0c-.194-.052-6.709-1.779-6.508-1.411" transform="translate(-499.5 -552.323)" fill="#ed975d"/>
        <path id="Path_2533" data-name="Path 2533" d="M597.775,607.234s-7.875,1.851-8.952-3.07-2.819-8,2.163-9.387,6.373.273,7.132,1.829,1.677,10.021-.343,10.629" transform="translate(-488.806 -494.318)" fill="#ffb27d"/>
        <path id="Path_2534" data-name="Path 2534" d="M426.287,1332.7h-4.768c-1,0-2.11-1-2.388-2.833s-2.333-2.833-2.778-4.333,1.834-3.612,1.834-3.612l.381-.49.4-.51,3.777.888s.093.9.152,2.045a26.157,26.157,0,0,1,.015,2.622c-.111,2,.56,4.154,2.337,4.543s1.043,1.679,1.043,1.679" transform="translate(-346.286 -1098.784)" fill="#2c3a64"/>
        <path id="Path_2535" data-name="Path 2535" d="M606.284,1356.921H593.645a1.14,1.14,0,0,1-.268-.078c-.844-.423-.58-3.653-.478-4.651.02-.185.034-.293.034-.293s4.445-3.555,5.056-.833c.02.085.042.168.065.25v0c.772,2.547,4.221,3.7,6.213,4.026a2.169,2.169,0,0,1,2.018,1.578" transform="translate(-493.089 -1123)" fill="#2c3a64"/>
        <path id="Path_2536" data-name="Path 2536" d="M564.658,951.788s-.675,8.421-1.468,18.544c-1.078,13.751-2.375,30.642-2.5,33.842-.222,5.556-1.112,14.444-1.112,14.444s-2.11,2.111-6.333,1.221a145.391,145.391,0,0,1-4.838-26.112c-.017-.22-.033-.442-.05-.663-1-13.666-2.555-42.443-2.555-42.443Z" transform="translate(-454.01 -790.753)" fill="#ffae00"/>
        <path id="Path_2537" data-name="Path 2537" d="M564.658,951.788s-.675,8.421-1.468,18.544l-14.786,23.4c-.017-.22-.033-.442-.05-.663-1-13.666-2.555-42.443-2.555-42.443Z" transform="translate(-454.01 -790.753)" fill="#e59c0c"/>
        <path id="Path_2538" data-name="Path 2538" d="M463.2,936.3s-12.166,30.5-20.166,44.831-10.5,18.333-10.5,18.333-4.583-1.833-5-3.083c0,0,3.059-27.67,8.416-34.415,3.027-3.811,6.583-15.249,6.75-19.249s1.083-11.916,1.083-11.916Z" transform="translate(-355.637 -774.266)" fill="#ffae00"/>
        <path id="Path_2539" data-name="Path 2539" d="M544.374,712.586c-.047,2.608-.2,5.54-.4,8.517q-.019.265-.038.53c-.13,1.845-.272,3.694-.435,5.5-.065.723-.135,1.438-.207,2.139l-.011.095c-.006.263-.038.548-.067.808-.664,6.754-1.361,12.089-1.49,12.171a.759.759,0,0,1-.519.132c-1.771-.223-7.055.179-11.381-.762a32.794,32.794,0,0,1-10.125-4.2c-.442-.261-1.45-.953-1.368-1.471.081-.569.229-1.39.418-2.423a131.1,131.1,0,0,0,2.176-17q.112-2.021.327-3.986a60.451,60.451,0,0,1,1.764-9.518c1.483-5.341,4.467-9.333,7.2-10.933.357-.2,1.5.626,3.268,1.759a5.09,5.09,0,0,0,4.838.506l1.621,2.607a16.41,16.41,0,0,1,4.191,8.737q.058.434.1.923a57.491,57.491,0,0,1,.138,5.873" transform="translate(-431.158 -575.75)" fill="#00bfa6"/>
        <path id="Path_2540" data-name="Path 2540" d="M613.288,769.783c-.047,2.608-.2,5.54-.4,8.517q-.019.265-.038.53c-10.116-6.332-11.674-17.919-11.674-17.919a27.672,27.672,0,0,1,11.977,3,57.487,57.487,0,0,1,.138,5.873" transform="translate(-500.072 -632.947)" fill="#42ceb7"/>
        <path id="Path_2541" data-name="Path 2541" d="M850.558,718.418a8.2,8.2,0,0,0,.284-1.265c.152-.609.243-1.841.472-1.815s.433.433.382.764a2.675,2.675,0,0,0,.127.939A7.533,7.533,0,0,0,853.6,715.5c1.341-1.9,2.1-2.24,2.461-.424a6.021,6.021,0,0,1-.569,3.675c-.823,1.824-2.35,2.062-3.819,2.266a6.019,6.019,0,0,0-1.428.773l-1.635-2.266s1.725-.638,1.952-1.1" transform="translate(-705.894 -593.823)" fill="#ffb27d"/>
        <path id="Path_2542" data-name="Path 2542" d="M640.524,728.425c-.521-1.411-1.332-1.319-1.332-1.319s-15.041,3.748-16.391,3.909-16.2-5.8-16.2-5.8-5.844-2.623-8.581-.228a6.539,6.539,0,0,0-1.93,6.931,6.619,6.619,0,0,0,5.594,4.931c6.057.771,18.142,2.224,20.676,1.871,5.638-.785,18.411-8.159,18.411-8.159a4.736,4.736,0,0,0-.249-2.14" transform="translate(-495.614 -602.228)" fill="#00bfa6"/>
        <path id="Path_2543" data-name="Path 2543" d="M577.9,574.527l19.6-4.257s-2.138-.154-7.576,0c0,0-2.888-7.154-7.984-4.084-6.3,1.117-9.09,3.721-6.957,7.629.656,1.582,2.913.712,2.913.712" transform="translate(-477.702 -470.332)" fill="#00bfa6"/>
      </g>
    </g>
  </g>
</svg>
