<svg xmlns="http://www.w3.org/2000/svg" width="44" height="44" viewBox="0 0 44 44">
  <g id="qr-code-line" transform="translate(-4 -4)">
    <path id="Path_12546" data-name="Path 12546" d="M6.632,4A2.632,2.632,0,0,0,4,6.632v10.53H17.162V4Zm7.239,9.872H7.291V7.291h6.581Z" transform="translate(0)" fill="#2b2b2b"/>
    <path id="Path_12547" data-name="Path 12547" d="M4,34.53a2.632,2.632,0,0,0,2.632,2.632h10.53V24H4Zm3.291-7.239h6.581v6.581H7.291Z" transform="translate(0 10.838)" fill="#2b2b2b"/>
    <path id="Path_12548" data-name="Path 12548" d="M24,37.162H34.53a2.632,2.632,0,0,0,2.632-2.632V24H24Zm3.291-9.872h6.581v6.581H27.291Z" transform="translate(10.838 10.838)" fill="#2b2b2b"/>
    <path id="Path_12549" data-name="Path 12549" d="M34.53,4H24V17.162H37.162V6.632A2.632,2.632,0,0,0,34.53,4Zm-.658,9.872H27.291V7.291h6.581Z" transform="translate(10.838)" fill="#2b2b2b"/>
    <path id="Path_12550" data-name="Path 12550" d="M22.581,11.291V8H16v6.581h3.291V11.291Z" transform="translate(6.709 2.581)" fill="#2b2b2b"/>
    <path id="Path_12551" data-name="Path 12551" d="M12,12h3.291v3.291H12Z" transform="translate(4.526 4.526)" fill="#2b2b2b"/>
    <path id="Path_12552" data-name="Path 12552" d="M14,14h6.581v3.291H14Z" transform="translate(5.591 5.657)" fill="#2b2b2b"/>
    <path id="Path_12553" data-name="Path 12553" d="M23.872,7.291v3.291h3.291V4H14v6.581h3.291V7.291Z" transform="translate(5.419)" fill="#2b2b2b"/>
    <path id="Path_12554" data-name="Path 12554" d="M4,14H7.291v6.581H4Z" transform="translate(0 5.591)" fill="#2b2b2b"/>
    <path id="Path_12555" data-name="Path 12555" d="M17.162,17.291v3.291H13.872V14H10.581v6.581H7.291v3.291H4v3.291h6.581V23.872h3.291v3.291h3.291V23.872h3.291V17.291Z" transform="translate(0 5.419)" fill="#2b2b2b"/>
    <path id="Path_12556" data-name="Path 12556" d="M21.291,19.872h3.291v3.291h3.291V19.872h3.291V16.581H24.581V10H21.291v3.291H18v3.291h3.291Z" transform="translate(7.587 3.251)" fill="#2b2b2b"/>
    <path id="Path_12557" data-name="Path 12557" d="M20.581,31.291H14v3.291H27.162V31.291H23.872V28H20.581Z" transform="translate(5.419 13.419)" fill="#2b2b2b"/>
    <path id="Path_12558" data-name="Path 12558" d="M25.872,22.581V19.291H22.581V16H19.291v3.291H16v3.291h3.291v3.291h3.291V22.581Z" transform="translate(6.616 6.616)" fill="#2b2b2b"/>
    <path id="Path_12559" data-name="Path 12559" d="M30,20h3.291v3.291H30Z" transform="translate(14.709 9.052)" fill="#2b2b2b"/>
    <path id="Path_12560" data-name="Path 12560" d="M22,20h9.872v3.291H22Z" transform="translate(9.547 9.052)" fill="#2b2b2b"/>
    <path id="Path_12561" data-name="Path 12561" d="M32.581,14H29.291v3.291H26v3.291h3.291v3.291h3.291V20.581h3.291V17.291H32.581Z" transform="translate(12.128 5.513)" fill="#2b2b2b"/>
    <path id="Path_12562" data-name="Path 12562" d="M20,22h3.291v9.872H20Z" transform="translate(9.052 9.547)" fill="#2b2b2b"/>
    <path id="Path_12563" data-name="Path 12563" d="M14,33.162h3.291V29.872h3.291V26.581H17.291V20H14Z" transform="translate(5.591 8.257)" fill="#2b2b2b"/>
  </g>
</svg>
