<svg xmlns="http://www.w3.org/2000/svg" width="25" height="25" viewBox="0 0 25 25"><defs><style>.a{fill:#3ab67d;}</style></defs><g transform="translate(8.854 8.854)"><path class="a" d="M139.646,136a3.646,3.646,0,1,0,3.646,3.646A3.65,3.65,0,0,0,139.646,136Zm0,5.208a1.563,1.563,0,1,1,1.563-1.562A1.564,1.564,0,0,1,139.646,141.208Z" transform="translate(-136 -136)"/></g><path class="a" d="M23.958,11.458H21.814a9.388,9.388,0,0,0-8.272-8.272V1.042a1.042,1.042,0,1,0-2.083,0V3.186a9.388,9.388,0,0,0-8.272,8.272H1.042a1.042,1.042,0,1,0,0,2.083H3.186a9.388,9.388,0,0,0,8.272,8.272v2.145a1.042,1.042,0,0,0,2.083,0V21.814a9.388,9.388,0,0,0,8.272-8.272h2.145a1.042,1.042,0,0,0,0-2.083ZM12.5,19.792A7.292,7.292,0,1,1,19.792,12.5,7.3,7.3,0,0,1,12.5,19.792Z"/></svg>