<svg xmlns="http://www.w3.org/2000/svg" width="14.164" height="16" viewBox="0 0 14.164 16">
  <path id="asterisk-solid" d="M39.418,44a1.144,1.144,0,0,1-1.561.419l-4.192-2.44v4.879A1.137,1.137,0,0,1,32.553,48a1.192,1.192,0,0,1-1.175-1.143V41.979l-4.225,2.439a1.142,1.142,0,1,1-1.142-1.979L30.2,40l-4.192-2.439A1.182,1.182,0,0,1,25.561,36a1.22,1.22,0,0,1,1.163-.564,1.147,1.147,0,0,1,.431.146l4.224,2.439V33.143a1.143,1.143,0,0,1,2.286,0v4.879l4.225-2.439a1.142,1.142,0,0,1,.431-.145,1.067,1.067,0,0,1,1.1.562A1.143,1.143,0,0,1,39,37.561L34.807,40l4.225,2.439A1.108,1.108,0,0,1,39.418,44Z" transform="translate(-25.429 -32)" fill="#ffaa0d"/>
</svg>
