<svg xmlns="http://www.w3.org/2000/svg" width="39.044" height="27.114" viewBox="0 0 39.044 27.114"><defs><style>.a{fill:#2b2b2b;}</style></defs><path class="a" d="M38.943,16.52l-1.976-3.06A4.7,4.7,0,0,0,33,11.3H27.888V8.324a3.279,3.279,0,0,0-3.256-3.295H15.064A6.067,6.067,0,0,0,3.026,6.186,6.164,6.164,0,0,0,5.737,11.3H.62a.627.627,0,0,0,0,1.255h6.2v1.254H4.338a.627.627,0,0,0,0,1.254H6.817v1.254H.62a.627.627,0,0,0,0,1.255h6.2v2.777a3.147,3.147,0,0,0-1.859,2.875v.619a.624.624,0,0,0,.62.627h5.5a3.414,3.414,0,0,0,6.669,0H29.667a3.414,3.414,0,0,0,6.669,0h2.088a.623.623,0,0,0,.62-.627v-6.98A.633.633,0,0,0,38.943,16.52ZM4.266,6.186A4.836,4.836,0,1,1,9.1,11.079,4.87,4.87,0,0,1,4.266,6.186ZM8.057,17.572H9.3a.627.627,0,0,0,0-1.255H8.057V15.063H12.4a.627.627,0,0,0,0-1.254H8.057V12.555h8.057a.627.627,0,0,0,0-1.255H12.465a6.162,6.162,0,0,0,2.706-5.017h9.462a2.031,2.031,0,0,1,2.016,2.041V20.08H8.057Zm18.592,5.644H17.8a3.47,3.47,0,0,0-.881-1.881h9.73ZM8.064,21.334H11.9a3.469,3.469,0,0,0-.881,1.881H6.2A1.881,1.881,0,0,1,8.064,21.334ZM14.409,25.9A2.213,2.213,0,1,1,16.6,23.686,2.2,2.2,0,0,1,14.409,25.9ZM33,25.9a2.213,2.213,0,1,1,2.187-2.213A2.2,2.2,0,0,1,33,25.9Zm4.8-2.683H36.392a3.417,3.417,0,0,0-6.782,0H27.888V12.555H33a3.472,3.472,0,0,1,2.93,1.591l1.875,2.9Zm0,0" transform="translate(0 -0.039)"/><path class="a" d="M354.379,247.311a1.014,1.014,0,1,1-1.014-1.026A1.02,1.02,0,0,1,354.379,247.311Zm0,0" transform="translate(-320.364 -223.664)"/><path class="a" d="M149.582,247.311a1.014,1.014,0,1,1-1.014-1.026A1.02,1.02,0,0,1,149.582,247.311Zm0,0" transform="translate(-134.159 -223.664)"/><path class="a" d="M82.952,33.632V30.889a.62.62,0,1,0-1.239,0v2.539l-1.265,1.756a.631.631,0,0,0,.135.876.614.614,0,0,0,.866-.137L82.833,34A.632.632,0,0,0,82.952,33.632Zm0,0" transform="translate(-73.036 -27.485)"/><path class="a" d="M343.137,143.105h-1.185a.623.623,0,0,0-.62.627v4.39a.623.623,0,0,0,.62.627h4.171a1.065,1.065,0,0,0,.932-.543,1.087,1.087,0,0,0,0-1.086l-1.447-2.563A2.849,2.849,0,0,0,343.137,143.105Zm-.566,4.39V144.36h.566a1.608,1.608,0,0,1,1.4.82l1.307,2.316Zm0,0" transform="translate(-310.345 -129.963)"/></svg>