<svg xmlns="http://www.w3.org/2000/svg" width="37.491" height="33.328" viewBox="0 0 37.491 33.328">
  <path id="hammer-solid" d="M26.917,15.46a5.933,5.933,0,0,1-5.208-1.653l-2.48-2.48a5.183,5.183,0,0,1-1.523-3.671V6.867L12.518,4.036A1.044,1.044,0,0,1,12.6,2.168L15.668.8A9.447,9.447,0,0,1,19.476,0h1.178a9.381,9.381,0,0,1,6.425,2.545l2.9,2.734a5.942,5.942,0,0,1,1.732,5.6l1.028,1.035.521-.521a1.556,1.556,0,0,1,2.207,0l1.562,1.562a1.556,1.556,0,0,1,0,2.207L31.3,20.889a1.556,1.556,0,0,1-2.207,0l-1.562-1.562a1.556,1.556,0,0,1,0-2.207l.521-.521ZM1.784,24.547l15.2-12.661a7.8,7.8,0,0,0,.768.911l2.48,2.48a8.023,8.023,0,0,0,1.25,1.022L8.781,31.545a4.968,4.968,0,1,1-7-7Z" fill="#37bfa7"/>
</svg>
