<svg xmlns="http://www.w3.org/2000/svg" width="33.328" height="33.328" viewBox="0 0 33.328 33.328">
  <path id="wrench-solid" d="M10.415,20.83A10.412,10.412,0,0,1,0,10.415,10.521,10.521,0,0,1,.4,7.538a.931.931,0,0,1,1.582-.345l5,5a1.045,1.045,0,0,0,.736.306h3.736A1.045,1.045,0,0,0,12.5,11.457V7.72a1.045,1.045,0,0,0-.306-.736l-5-5A.933.933,0,0,1,7.538.4,10.52,10.52,0,0,1,10.415,0a10.426,10.426,0,0,1,9.8,13.963L32.033,25.784a4.419,4.419,0,1,1-6.249,6.249L13.963,20.212A10.343,10.343,0,0,1,10.415,20.83Zm17.706,8.853a1.562,1.562,0,1,0-1.562-1.562A1.559,1.559,0,0,0,28.121,29.683Z" fill="#37bfa7"/>
</svg>
