<?xml version="1.0" standalone="no"?>
<!DOCTYPE svg PUBLIC "-//W3C//DTD SVG 20010904//EN"
 "http://www.w3.org/TR/2001/REC-SVG-20010904/DTD/svg10.dtd">
<svg version="1.0" xmlns="http://www.w3.org/2000/svg"
 width="30.000000pt" height="30.000000pt" viewBox="0 0 30.000000 30.000000"
 preserveAspectRatio="xMidYMid meet">

<g transform="translate(0.000000,30.000000) scale(0.100000,-0.100000)"
fill="#000000" stroke="none">
<path d="M60 245 c0 -12 17 -15 90 -15 73 0 90 3 90 15 0 12 -17 15 -90 15
-73 0 -90 -3 -90 -15z"/>
<path d="M27 204 c-4 -4 -7 -32 -7 -62 0 -45 3 -55 20 -59 13 -3 20 -14 20
-29 0 -24 2 -24 90 -24 88 0 90 0 90 24 0 15 7 26 21 29 18 5 20 12 17 64 l-3
58 -121 3 c-66 1 -123 -1 -127 -4z m193 -104 l0 -50 -70 0 -70 0 0 50 0 50 70
0 70 0 0 -50z"/>
</g>
</svg>
