<svg xmlns="http://www.w3.org/2000/svg" width="28" height="28" viewBox="0 0 28 28">
  <path id="calendar-days-solid" d="M10,50.009V51.39h8V50.009a2,2,0,1,1,4,0V51.39h3c1.656,0,3,.094,3,1.758v1.883H0V53.148c0-1.664,1.343-1.758,3-1.758H6V50.009a2,2,0,1,1,4,0ZM0,55.91H28V72.987A3.008,3.008,0,0,1,25,76H3a3.007,3.007,0,0,1-3-3.013Zm4,7.031a1,1,0,0,0,1,1H7a1,1,0,0,0,1-1V60.933a1,1,0,0,0-1-1H5a1,1,0,0,0-1,1Zm8,0a1,1,0,0,0,1,1h2a1,1,0,0,0,1-1V60.933a1,1,0,0,0-1-1H13a1,1,0,0,0-1,1Zm9-3.013a1,1,0,0,0-1,1v2.009a1,1,0,0,0,1,1h2a1,1,0,0,0,1-1V60.933a1,1,0,0,0-1-1ZM4,70.978a1,1,0,0,0,1,1H7a1,1,0,0,0,1-1V68.969a1,1,0,0,0-1-1H5a1,1,0,0,0-1,1Zm9-3.013a1,1,0,0,0-1,1v2.009a1,1,0,0,0,1,1h2a1,1,0,0,0,1-1V68.969a1,1,0,0,0-1-1Zm7,3.013a1,1,0,0,0,1,1h2a1,1,0,0,0,1-1V68.969a1,1,0,0,0-1-1H21a1,1,0,0,0-1,1Z" transform="translate(0 -48)" fill="#858585"/>
</svg>
