<svg id="Group_9147" data-name="Group 9147" xmlns="http://www.w3.org/2000/svg" width="18.011" height="21.33" viewBox="0 0 18.011 21.33">
  <path id="Path_2485" data-name="Path 2485" d="M21.373,2H6.637A1.639,1.639,0,0,0,5,3.637V22.512a.819.819,0,0,0,.819.819h.819A.818.818,0,0,0,7.292,23l1.8-2.4,1.8,2.4a.848.848,0,0,0,1.31,0l1.8-2.4,1.8,2.4a.848.848,0,0,0,1.31,0l1.8-2.4,1.8,2.4a.818.818,0,0,0,.655.327h.819a.819.819,0,0,0,.819-.819V3.637A1.639,1.639,0,0,0,21.373,2Zm0,19.147-1.8-2.4a.848.848,0,0,0-1.31,0l-1.8,2.4-1.8-2.4a.848.848,0,0,0-1.31,0l-1.8,2.4-1.8-2.4a.848.848,0,0,0-1.31,0l-1.8,2.4V3.637H21.373Z" transform="translate(-5 -2)" fill="#858585"/>
  <path id="check-solid" d="M21.375,106.3a.913.913,0,0,1,0,1.4l-6.261,6.8a1.228,1.228,0,0,1-1.588,0l-3.2-3.746a.913.913,0,0,1,0-1.4,1.231,1.231,0,0,1,1.59,0l2.369,3.041,5.5-6.1a1.226,1.226,0,0,1,1.588,0Z" transform="translate(-6.786 -100.649)" fill="#858585"/>
</svg>
