<svg id="icons_Q2" data-name="icons Q2" xmlns="http://www.w3.org/2000/svg" width="14.762" height="19.11" viewBox="0 0 14.762 19.11">
  <path id="Path_12636" data-name="Path 12636" d="M20.039,11.737a1.3,1.3,0,1,1-1.3,1.3,1.259,1.259,0,0,1,1.3-1.3m0-1.737a3.039,3.039,0,1,0,3.039,3.039A3.039,3.039,0,0,0,20.039,10Z" transform="translate(-12.658 -6.527)" fill="#fff"/>
  <path id="Path_12637" data-name="Path 12637" d="M14.381,3.737c3.213,0,5.644,2.605,5.644,6.078s-3.734,7.251-5.644,9.2c-1.91-1.954-5.644-5.948-5.644-9.2a5.874,5.874,0,0,1,5.644-6.078m0-1.737C10.083,2,7,5.517,7,9.815s4.993,9.248,6.773,11.028a.825.825,0,0,0,1.216,0c1.78-1.78,6.773-6.643,6.773-11.028S18.679,2,14.381,2Z" transform="translate(-7 -2)" fill="#fff"/>
</svg>
