<svg xmlns="http://www.w3.org/2000/svg" width="21" height="20.207" viewBox="0 0 21 20.207">
  <g id="_9025861_package_box_icon" data-name="9025861_package_box_icon" transform="translate(0.133 -0.124)">
    <rect id="Rectangle_4761" data-name="Rectangle 4761" width="21" height="20" transform="translate(-0.133 0.124)" fill="none"/>
    <path id="Path_2477" data-name="Path 2477" d="M47.44,33.712V25.783a.651.651,0,0,0-.33-.563l-7.077-3.981a.627.627,0,0,0-.627,0L32.33,25.22a.651.651,0,0,0-.33.563v7.929a.651.651,0,0,0,.33.563l7.077,3.981a.627.627,0,0,0,.627,0l7.077-3.981A.651.651,0,0,0,47.44,33.712Z" transform="translate(-29.294 -19.026)" fill="none" stroke="#2b2b2b" stroke-linecap="round" stroke-linejoin="round" stroke-width="2"/>
    <path id="Path_2478" data-name="Path 2478" d="M87.8,55.484V51.3L80,47" transform="translate(-73.434 -42.793)" fill="none" stroke="#2b2b2b" stroke-linecap="round" stroke-linejoin="round" stroke-width="2"/>
    <path id="Path_2479" data-name="Path 2479" d="M48.363,74.6,40.8,78.894,33.1,74.6" transform="translate(-30.305 -68.173)" fill="none" stroke="#2b2b2b" stroke-linecap="round" stroke-linejoin="round" stroke-width="2"/>
    <line id="Line_548" data-name="Line 548" x1="0.072" y2="8.588" transform="translate(10.426 10.721)" fill="none" stroke="#2b2b2b" stroke-linecap="round" stroke-linejoin="round" stroke-width="2"/>
  </g>
</svg>
