<svg xmlns="http://www.w3.org/2000/svg" width="27" height="26" viewBox="0 0 27 26">
  <g id="_9045017_receipt_icon" data-name="9045017_receipt_icon" transform="translate(0.344 0.067)">
    <rect id="Rectangle_4762" data-name="Rectangle 4762" width="1" height="1" transform="translate(16.656 12.933)" fill="#858585"/>
    <rect id="Rectangle_4763" data-name="Rectangle 4763" width="7" height="1" transform="translate(6.656 12.933)" fill="#858585"/>
    <rect id="Rectangle_4764" data-name="Rectangle 4764" width="1" height="2" transform="translate(16.656 9.933)" fill="#858585"/>
    <rect id="Rectangle_4765" data-name="Rectangle 4765" width="7" height="2" transform="translate(6.656 9.933)" fill="#858585"/>
    <rect id="Rectangle_4766" data-name="Rectangle 4766" width="11" height="1" transform="translate(6.656 5.933)" fill="#858585"/>
    <path id="Path_2480" data-name="Path 2480" d="M21.359,2H6.636A1.638,1.638,0,0,0,5,3.636V22.494a.818.818,0,0,0,.818.818h.818a.817.817,0,0,0,.654-.327l1.8-2.4,1.8,2.4a.847.847,0,0,0,1.309,0l1.8-2.4,1.8,2.4a.847.847,0,0,0,1.309,0l1.8-2.4,1.8,2.4a.817.817,0,0,0,.654.327h.818a.818.818,0,0,0,.818-.818V3.636A1.638,1.638,0,0,0,21.359,2Zm0,19.13-1.8-2.4a.847.847,0,0,0-1.309,0l-1.8,2.4-1.8-2.4a.847.847,0,0,0-1.309,0l-1.8,2.4-1.8-2.4a.847.847,0,0,0-1.309,0l-1.8,2.4V3.636H21.359Z" transform="translate(-1.117 -0.963)" fill="#858585"/>
    <rect id="_Transparent_Rectangle_" data-name="&lt;Transparent Rectangle&gt;" width="27" height="26" transform="translate(-0.344 -0.067)" fill="none"/>
  </g>
</svg>
