<svg xmlns="http://www.w3.org/2000/svg" width="35.277" height="41.61" viewBox="0 0 35.277 41.61">
  <g id="Group_11720" data-name="Group 11720" transform="translate(-628.734 -856.175)">
    <path id="star-solid" d="M30.756,2.739l2.68.392a.59.59,0,0,1,.332,1.005L31.824,6.025l.459,2.709a.587.587,0,0,1-.241.578.6.6,0,0,1-.629.043L29.019,8.089,26.626,9.355A.606.606,0,0,1,26,9.313a.586.586,0,0,1-.239-.578l.459-2.709L24.272,4.136A.59.59,0,0,1,24.6,3.131l2.678-.392,1.2-2.445a.6.6,0,0,1,1.072,0Z" transform="translate(604.64 888.362)" fill="#fdc156"/>
    <path id="thumbs-up-solid" d="M7.514,55.42V44.594a2.07,2.07,0,0,0-2.128-2.05H1.128A2.108,2.108,0,0,0-1,44.594V55.361a2.07,2.07,0,0,0,2.128,2.05H5.385A1.923,1.923,0,0,0,7.514,55.42ZM34.277,44.66A3.177,3.177,0,0,0,31.084,41.5H21.339a15.989,15.989,0,0,0,2.3-6.328A3.2,3.2,0,0,0,20.342,32c-4.2,0-1.753,5.019-7.2,9.332l-1.084.857a3.165,3.165,0,0,0-1.191,2.465h0L10.863,55.2a3.153,3.153,0,0,0,1.277,2.53l2.271,1.686a10.678,10.678,0,0,0,6.383,2.11h3.9a3.177,3.177,0,0,0,3.193-3.162,3.132,3.132,0,0,0-.083-.7,3.154,3.154,0,0,0,2.211-3,3.111,3.111,0,0,0-.475-1.64,3.166,3.166,0,0,0,2.6-3.1A3.126,3.126,0,0,0,31.3,47.8,3.166,3.166,0,0,0,34.277,44.66Z" transform="translate(629.734 824.175)" fill="#fdc156"/>
    <path id="star-solid-2" data-name="star-solid" d="M30.756,2.739l2.68.392a.59.59,0,0,1,.332,1.005L31.824,6.025l.459,2.709a.587.587,0,0,1-.241.578.6.6,0,0,1-.629.043L29.019,8.089,26.626,9.355A.606.606,0,0,1,26,9.313a.586.586,0,0,1-.239-.578l.459-2.709L24.272,4.136A.59.59,0,0,1,24.6,3.131l2.678-.392,1.2-2.445a.6.6,0,0,1,1.072,0Z" transform="translate(617.739 888.362)" fill="#fdc156"/>
    <path id="star-solid-3" data-name="star-solid" d="M30.756,2.739l2.68.392a.59.59,0,0,1,.332,1.005L31.824,6.025l.459,2.709a.587.587,0,0,1-.241.578.6.6,0,0,1-.629.043L29.019,8.089,26.626,9.355A.606.606,0,0,1,26,9.313a.586.586,0,0,1-.239-.578l.459-2.709L24.272,4.136A.59.59,0,0,1,24.6,3.131l2.678-.392,1.2-2.445a.6.6,0,0,1,1.072,0Z" transform="translate(630.067 888.362)" fill="#fdc156"/>
  </g>
</svg>
