<svg xmlns="http://www.w3.org/2000/svg" width="28.174" height="18.052" viewBox="0 0 28.174 18.052">
  <g id="Layer_2" transform="translate(-2.999 -2)">
    <g id="Group_8855" data-name="Group 8855" transform="translate(2.999 2)">
      <path id="Path_2472" data-name="Path 2472" d="M185.531,178.871a.705.705,0,0,0-.574-.3H180.58v-1.864a.711.711,0,0,0-.706-.706H166.406a.711.711,0,0,0-.706.706v11.409a.711.711,0,0,0,.706.706h2a3.061,3.061,0,0,0,5.892,0h5.429a3.061,3.061,0,0,0,5.893,0h1.459a.711.711,0,0,0,.706-.706v-5.808a.672.672,0,0,0-.132-.4Zm.847,3.643h-3.163v-2.523H184.6Zm-19.266-5.092h12.056v10H174.36a3.066,3.066,0,0,0-6.024,0h-1.224v-10Zm4.236,12.218A1.657,1.657,0,1,1,173,187.983,1.659,1.659,0,0,1,171.348,189.639Zm11.331,0a1.657,1.657,0,1,1,1.657-1.657A1.659,1.659,0,0,1,182.679,189.639Zm3.012-2.221a3.06,3.06,0,0,0-5.111-1.657v-5.77h1.214v3.229a.711.711,0,0,0,.706.706h3.888v3.492Z" transform="translate(-159.607 -173)" fill="#fff"/>
      <path id="Path_2473" data-name="Path 2473" d="M86.62,177.14h3.708a.52.52,0,0,0,0-1.04H86.62a.52.52,0,0,0,0,1.04Z" transform="translate(-86.1 -176.1)" fill="#fff"/>
      <path id="Path_2474" data-name="Path 2474" d="M101.775,203.4H98.92a.52.52,0,0,0,0,1.04h2.855a.52.52,0,0,0,0-1.04Z" transform="translate(-97.547 -200.824)" fill="#fff"/>
      <path id="Path_2475" data-name="Path 2475" d="M115.922,230.7h-1.8a.52.52,0,0,0,0,1.04h1.8a.52.52,0,0,0,0-1.04Z" transform="translate(-111.694 -225.549)" fill="#fff"/>
      <path id="Path_2476" data-name="Path 2476" d="M131.744,258h-.624a.52.52,0,0,0,0,1.04h.624a.52.52,0,0,0,0-1.04Z" transform="translate(-127.516 -250.273)" fill="#fff"/>
    </g>
  </g>
</svg>
